<svg width="110" height="110" viewBox="0 0 110 110" fill="none" xmlns="http://www.w3.org/2000/svg">
<circle cx="55" cy="55" r="55" fill="#0B64FF"/>
<path fill-rule="evenodd" clip-rule="evenodd" d="M32.4999 49.5002C32.4999 40.1114 40.111 32.5002 49.4999 32.5002C58.8887 32.5002 66.4999 40.1114 66.4999 49.5002C66.4999 58.8891 58.8887 66.5002 49.4999 66.5002C40.111 66.5002 32.4999 58.8891 32.4999 49.5002ZM49.4999 26.5002C36.7973 26.5002 26.4999 36.7977 26.4999 49.5002C26.4999 62.2028 36.7973 72.5002 49.4999 72.5002C54.4066 72.5002 58.9544 70.9638 62.6885 68.3457L76.6714 82.3287C78.2335 83.8908 80.7662 83.8908 82.3283 82.3287C83.8904 80.7666 83.8904 78.2339 82.3283 76.6718L68.3453 62.6889C70.9634 58.9548 72.4999 54.4069 72.4999 49.5002C72.4999 36.7977 62.2024 26.5002 49.4999 26.5002Z" fill="white"/>
</svg>
